<svg version="1.1" id="Layer_1" xmlns="http://www.w3.org/2000/svg" xmlns:xlink="http://www.w3.org/1999/xlink" x="0px" y="0px"
	 width="100%" viewBox="0 0 500 500" enable-background="new 0 0 500 500" xml:space="preserve">
<path fill="#FBFAF9" opacity="1.000000" stroke="none" 
	d="
M234.000000,501.000000 
	C157.333359,501.000000 81.166656,500.970581 5.000213,501.096222 
	C1.575895,501.101868 0.903036,500.423798 0.905301,497.000000 
	C1.013779,333.000092 1.013772,169.000122 0.905334,5.000236 
	C0.903070,1.576912 1.575826,0.903023 4.999887,0.905288 
	C168.999771,1.013774 332.999725,1.013761 496.999634,0.905353 
	C500.422668,0.903090 501.096985,1.575448 501.094727,4.999767 
	C500.986206,168.999649 500.986237,332.999603 501.094604,496.999512 
	C501.096893,500.422272 500.425415,501.100647 497.000305,501.095886 
	C409.500305,500.974304 322.000153,501.000000 234.000000,501.000000 
z"/>
<path fill="#ACCAFF" opacity="1.000000" stroke="none" 
	d="
M334.000000,158.014450 
	C371.636597,158.014481 408.773224,158.004333 445.909790,158.050095 
	C447.461151,158.052017 449.659424,157.137650 450.439148,158.900803 
	C451.144287,160.495300 449.333527,161.813126 448.380646,163.134537 
	C445.853546,166.638885 443.127441,170.027054 440.912659,173.720581 
	C439.163361,176.637909 437.585632,177.111145 434.609070,175.342773 
	C425.838104,170.131943 416.436890,166.363968 406.338501,164.696243 
	C401.121338,163.834641 395.799622,163.623260 390.538727,163.002975 
	C387.043213,162.590851 385.961060,163.961472 385.994049,167.466614 
	C386.150787,184.118317 385.928864,200.774185 386.156677,217.424240 
	C386.214691,221.664505 385.301483,223.294205 380.697418,223.109009 
	C371.386688,222.734497 362.043060,222.780029 352.727722,223.091888 
	C348.279907,223.240784 346.703064,222.139755 346.792328,217.367966 
	C347.097595,201.053558 346.807159,184.728836 346.980835,168.410553 
	C347.024170,164.340546 345.824127,162.751724 341.586029,162.966599 
	C326.772217,163.717667 312.674133,166.968491 299.814941,174.549545 
	C296.338745,176.598907 293.982422,177.468445 291.464203,173.106018 
	C288.588074,168.123642 284.883606,163.619446 280.905243,158.014435 
	C299.084930,158.014435 316.292450,158.014435 334.000000,158.014450 
z"/>
<path fill="#ACCBFF" opacity="1.000000" stroke="none" 
	d="
M86.702133,210.298996 
	C81.123505,197.526840 75.713356,185.095642 70.072281,172.133835 
	C68.636238,174.066208 69.104729,175.576035 69.100601,176.936081 
	C69.058578,190.762589 69.107346,204.589417 69.033676,218.415665 
	C69.024338,220.169708 70.031487,222.809326 66.738731,222.924255 
	C63.049984,223.053024 64.134682,220.162033 64.106499,218.259689 
	C63.997936,210.931427 63.996487,203.600311 64.057152,196.271103 
	C64.143890,185.791595 63.434685,175.369705 62.133808,164.975800 
	C61.295132,158.274841 61.579155,158.016312 68.436447,158.014725 
	C79.930870,158.012070 91.427849,158.150574 102.918251,157.935822 
	C106.658722,157.865891 108.749367,158.671936 110.393028,162.492569 
	C118.606270,181.584045 127.177017,200.522934 135.755844,219.454834 
	C137.206909,222.657059 136.071564,223.052704 133.208618,223.033295 
	C120.715256,222.948624 108.220253,222.925446 95.727661,223.054749 
	C93.108757,223.081863 91.783524,222.059723 90.875816,219.776291 
	C89.648216,216.688126 88.215401,213.681534 86.702133,210.298996 
z"/>
<path fill="#ACCBFF" opacity="1.000000" stroke="none" 
	d="
M217.342407,185.318344 
	C220.825180,176.993088 224.211853,169.042404 227.406647,161.015366 
	C228.264343,158.860352 229.338760,157.937378 231.760712,157.961731 
	C243.582794,158.080658 255.407776,158.102936 267.229279,157.958084 
	C270.431183,157.918854 271.283234,159.200256 271.028717,162.117340 
	C269.351929,181.335968 268.673889,200.593475 269.025024,219.882507 
	C269.069244,222.310440 267.975494,223.031219 265.707306,223.018799 
	C254.550491,222.957703 243.392365,222.914200 232.236465,223.032043 
	C228.418503,223.072372 229.037811,220.539108 229.035339,218.285950 
	C229.018539,202.969147 229.026566,187.652298 228.300766,172.064056 
	C225.609421,178.604828 222.872177,185.127167 220.237930,191.690857 
	C216.649200,200.632828 213.147247,209.609604 209.584503,218.562057 
	C209.154999,219.641296 208.666473,220.716995 208.052292,221.698608 
	C206.802094,223.696747 204.661270,223.348557 203.136520,222.688049 
	C201.286682,221.886703 202.930771,220.371094 203.354813,219.325653 
	C207.913849,208.085938 212.555359,196.879669 217.342407,185.318344 
z"/>
<path fill="#ABCAFF" opacity="1.000000" stroke="none" 
	d="
M229.027740,286.035950 
	C229.027664,276.003357 229.027664,276.003265 238.393677,276.003326 
	C247.050156,276.003357 255.712372,276.188171 264.360474,275.919067 
	C268.190277,275.799866 269.203125,277.107727 269.087341,280.771271 
	C268.840240,288.587494 269.069763,296.417480 269.010132,304.241119 
	C268.913849,316.873474 269.845886,329.451172 271.041931,342.007782 
	C271.417694,345.952393 270.142212,347.185272 266.126068,347.090942 
	C254.978683,346.829071 243.809006,346.693390 232.672897,347.133881 
	C227.371780,347.343597 226.441696,345.228821 227.052185,340.775116 
	C229.521133,322.762909 228.990936,304.634155 229.027740,286.035950 
z"/>
<path fill="#ABCAFF" opacity="1.000000" stroke="none" 
	d="
M344.998840,336.869049 
	C346.214783,317.526733 346.949036,298.628448 346.869354,279.707489 
	C346.857483,276.891998 347.853973,275.933380 350.642548,275.962097 
	C361.284546,276.071747 371.929352,276.088898 382.570831,275.957367 
	C385.632019,275.919525 386.143799,277.376434 386.093750,279.939423 
	C385.986572,285.425171 385.988403,290.915741 386.077911,296.402130 
	C386.334839,312.148010 386.875061,327.884705 388.731812,343.535950 
	C389.066284,346.355225 388.068359,347.035065 385.538025,347.023438 
	C372.899597,346.965424 360.259583,346.903015 347.622803,347.059265 
	C344.157990,347.102112 343.738098,345.406494 344.135834,342.721527 
	C344.402496,340.921722 344.706543,339.127411 344.998840,336.869049 
z"/>
<path fill="#ACCBFF" opacity="1.000000" stroke="none" 
	d="
M161.878967,336.860291 
	C160.265915,340.924438 158.698364,344.594543 157.280029,348.321442 
	C156.367081,350.720398 155.135284,352.038727 152.215576,352.067902 
	C149.156616,352.098480 147.789658,350.820007 146.673218,348.232880 
	C136.860657,325.494568 126.991692,302.780365 117.040825,280.102264 
	C115.722939,277.098816 116.037659,275.929413 119.598198,275.960785 
	C132.255157,276.072479 144.914185,276.062439 157.571167,275.953522 
	C160.001526,275.932587 161.156937,276.982666 162.051758,279.024628 
	C164.714050,285.100006 167.491623,291.124878 170.414963,297.591583 
	C173.463409,292.813171 174.666199,287.628296 176.904739,282.922363 
	C177.546249,281.573792 178.145950,280.195068 178.629898,278.783905 
	C179.726135,275.587219 182.497070,275.263306 184.710541,276.319977 
	C186.889343,277.360107 184.919205,279.541382 184.338058,280.998383 
	C176.950272,299.520538 169.455368,317.999969 161.878967,336.860291 
z"/>
<path fill="#AFCCFF" opacity="1.000000" stroke="none" 
	d="
M64.055252,290.007751 
	C64.055717,286.352600 64.058807,283.195435 64.055557,280.038269 
	C64.053474,278.011658 63.805645,275.986633 66.923912,275.972351 
	C69.980797,275.958374 69.883575,277.876251 69.886116,279.964935 
	C69.902260,293.258209 69.856697,306.552399 70.002106,319.844391 
	C70.081741,327.123901 70.865021,334.364166 71.767014,341.593445 
	C72.065346,343.984467 73.159355,347.278595 68.515991,347.031006 
	C65.186409,346.853424 61.237747,348.114471 61.986340,342.151611 
	C64.139061,325.004272 64.234161,307.756409 64.055252,290.007751 
z"/>
<path fill="#636DFA" opacity="1.000000" stroke="none" 
	d="
M64.872284,259.157288 
	C63.837234,261.641449 62.007374,261.174286 60.496162,260.736877 
	C58.752117,260.232117 59.401695,258.533752 59.447983,257.300293 
	C59.597786,253.308151 59.821068,249.317871 60.083889,245.331345 
	C60.185898,243.784027 59.569202,241.755508 62.045269,241.410736 
	C64.425789,241.079269 65.715431,242.280777 66.464897,244.491013 
	C66.866051,245.674057 66.700409,247.218323 68.204094,248.009354 
	C69.910873,247.001694 70.003662,245.021011 70.820160,243.502579 
	C71.471222,242.291824 71.940552,240.995834 73.669739,241.310089 
	C75.154083,241.579819 76.104019,242.511353 76.143295,244.020691 
	C76.273178,249.011581 76.434395,254.007217 76.338440,258.996307 
	C76.279854,262.041718 72.582565,261.284637 72.391945,260.811554 
	C70.704735,256.624146 67.409439,259.379547 64.872284,259.157288 
z"/>
<path fill="#636DFA" opacity="1.000000" stroke="none" 
	d="
M403.333282,254.712738 
	C403.010406,257.043121 404.282166,259.515717 402.214752,260.650665 
	C400.772491,261.442413 398.712036,261.573364 397.691803,259.175507 
	C397.008636,257.569824 396.867035,255.626923 395.262207,254.360809 
	C393.874054,255.772324 394.586395,257.492950 394.425598,259.015442 
	C394.233521,260.834412 393.158844,261.043579 391.683502,261.033234 
	C390.144043,261.022400 389.037811,260.643127 389.153900,258.834839 
	C389.482880,253.710159 389.831146,248.586716 390.178131,243.463211 
	C390.267487,242.144318 390.864410,241.290314 392.290466,241.190308 
	C393.851044,241.080841 395.305054,241.235001 396.163879,242.780365 
	C396.858551,244.030273 397.501556,245.308884 398.726074,247.636703 
	C398.901550,245.406113 399.019775,244.360870 399.058167,243.312714 
	C399.122955,241.543076 400.192566,241.131363 401.722046,241.181702 
	C403.498932,241.240219 403.924500,242.283676 403.841370,243.826187 
	C403.654114,247.300552 403.501434,250.776779 403.333282,254.712738 
z"/>
<path fill="#636DFA" opacity="1.000000" stroke="none" 
	d="
M134.476257,256.275116 
	C134.247711,258.645111 135.204117,261.268921 131.519440,261.049500 
	C128.101944,260.846039 129.194702,258.417847 129.254547,256.678833 
	C129.379990,253.034454 129.690964,249.391953 130.061874,245.762589 
	C130.231583,244.102066 129.404037,241.826675 131.992844,241.252960 
	C134.518906,240.693130 136.100571,241.915009 136.949814,244.273590 
	C137.220703,245.026016 137.636078,245.726425 138.505722,247.529648 
	C138.777878,245.549698 139.009995,244.576767 139.025238,243.600449 
	C139.056549,241.595688 140.146652,241.042419 141.936356,241.200226 
	C143.793152,241.363922 143.889938,242.616684 143.832855,244.045822 
	C143.647507,248.686996 143.500748,253.329758 143.305710,257.970490 
	C143.251404,259.262604 143.424118,260.746216 141.488434,260.931427 
	C139.723984,261.100281 138.213608,260.978516 137.579483,258.868500 
	C137.153137,257.449799 136.730896,255.840164 135.769928,254.823380 
	C134.739838,253.733398 134.740875,255.248550 134.476257,256.275116 
z"/>
<path fill="#636DFA" opacity="1.000000" stroke="none" 
	d="
M176.621063,258.818420 
	C176.693832,257.441772 176.843140,256.449097 176.851257,255.455307 
	C176.858627,254.550018 177.288528,253.291870 175.791016,253.152435 
	C174.441528,253.026794 173.642410,253.815903 173.376648,255.133362 
	C173.343887,255.295624 173.347092,255.465927 173.307053,255.625839 
	C172.754700,257.832397 174.438293,261.706238 169.777573,260.960999 
	C165.451904,260.269318 168.289215,256.924408 168.144867,254.955231 
	C167.880203,251.344666 168.506210,247.671982 168.712189,244.022461 
	C168.820389,242.105789 169.410339,240.910385 171.681595,241.031708 
	C173.928314,241.151718 173.766586,242.566528 173.843124,244.130402 
	C173.914459,245.588089 172.758377,247.955551 175.364212,248.063690 
	C177.932358,248.170273 177.124008,245.700378 177.256927,244.251160 
	C177.449234,242.154541 177.904312,240.795425 180.467896,240.955750 
	C183.073212,241.118668 182.746475,242.790359 182.666458,244.465469 
	C182.452454,248.945282 182.256454,253.426010 182.021057,257.904694 
	C181.963470,259.000244 182.325027,260.488342 180.689987,260.681244 
	C179.181732,260.859192 177.249481,261.680511 176.621063,258.818420 
z"/>
<path fill="#636DFA" opacity="1.000000" stroke="none" 
	d="
M276.427490,243.724777 
	C279.474640,240.340118 283.158051,240.728348 286.590637,241.716873 
	C289.882812,242.664993 290.723145,246.693848 288.352509,250.560455 
	C287.136353,252.544067 286.786560,254.041077 288.113770,255.904999 
	C289.475586,257.817535 289.015198,259.182678 286.944458,260.276428 
	C284.662140,261.481964 284.577911,259.451202 283.830841,258.354218 
	C283.111664,257.298187 282.400330,256.236786 281.707031,255.209610 
	C281.143097,255.496414 280.754486,255.561981 280.624603,255.780975 
	C279.579224,257.543793 281.635498,261.677216 277.247467,260.802368 
	C273.645813,260.084290 275.794617,257.032837 275.780609,255.055878 
	C275.754791,251.419510 276.137848,247.780228 276.427490,243.724777 
z"/>
<path fill="#656FFA" opacity="1.000000" stroke="none" 
	d="
M327.901031,243.508850 
	C327.811890,247.429245 328.013092,250.960129 327.490051,254.380249 
	C326.738098,259.297211 323.354919,261.549652 318.624695,261.006409 
	C315.898621,260.693359 314.302307,259.214661 314.101196,256.572601 
	C313.772888,252.259064 313.981659,247.950882 314.727631,243.665970 
	C315.044220,241.847397 315.882721,241.059387 317.728210,241.223389 
	C319.958710,241.421585 319.773163,242.958542 319.651306,244.495239 
	C319.428192,247.308273 319.155365,250.118637 319.005127,252.935547 
	C318.945007,254.062164 318.879944,255.527893 320.473755,255.614609 
	C321.962952,255.695633 322.313660,254.301361 322.426239,253.165527 
	C322.720612,250.194839 322.857758,247.208633 323.063110,244.229004 
	C323.141785,243.087494 322.976898,241.738159 324.475922,241.397614 
	C325.976379,241.056763 327.539398,240.894745 327.901031,243.508850 
z"/>
<path fill="#656FFA" opacity="1.000000" stroke="none" 
	d="
M439.837708,257.682373 
	C437.318756,261.085297 434.195068,261.874146 430.821991,260.395691 
	C427.511810,258.944794 427.529968,255.653427 427.680725,252.643570 
	C427.903076,248.204651 428.807220,243.975220 433.368195,241.815948 
	C437.189514,240.006882 440.846497,241.972290 440.992737,245.854370 
	C441.039978,247.108124 441.370239,248.762634 439.450623,248.955048 
	C438.274506,249.072937 436.775696,249.697250 436.086853,247.874420 
	C434.625824,244.008118 433.640137,247.356110 433.342377,248.291855 
	C432.602905,250.615601 432.022705,253.089157 433.406921,256.116638 
	C434.289673,252.973221 434.048553,248.734726 438.621124,250.258133 
	C442.612030,251.587723 440.838989,254.702759 439.837708,257.682373 
z"/>
<path fill="#656FFA" opacity="1.000000" stroke="none" 
	d="
M355.066528,260.258301 
	C350.979523,255.701492 350.871887,247.253540 354.556000,243.147491 
	C356.895172,240.540436 359.710205,240.084381 362.616211,241.946823 
	C365.888245,244.043808 366.657318,251.115280 364.258850,256.375336 
	C362.513306,260.203583 359.688507,262.009369 355.066528,260.258301 
z"/>
<path fill="#656FFA" opacity="1.000000" stroke="none" 
	d="
M241.805405,247.519897 
	C240.129990,246.425049 237.428635,247.835922 237.590469,244.288712 
	C237.743652,240.931152 239.810944,241.192703 242.008759,241.186600 
	C244.499527,241.179688 246.990143,241.128632 249.480911,241.105103 
	C250.741074,241.093201 251.826721,241.340927 251.890213,242.917862 
	C251.937958,244.103943 251.988953,245.568832 250.479340,245.656235 
	C246.843201,245.866791 247.525864,248.502808 247.377609,250.708710 
	C247.199585,253.357758 246.950226,256.008423 246.931625,258.659760 
	C246.916672,260.794464 245.726257,261.030273 244.030823,261.022247 
	C242.057236,261.012909 242.099716,259.855286 242.117752,258.380615 
	C242.160370,254.897278 242.037811,251.411880 241.805405,247.519897 
z"/>
<path fill="#656FFA" opacity="1.000000" stroke="none" 
	d="
M105.860352,249.197540 
	C105.768318,252.637161 105.644348,255.610535 105.629219,258.584442 
	C105.619041,260.585907 104.539330,261.038116 102.776062,261.045013 
	C100.912277,261.052338 100.004135,260.379028 100.101509,258.442139 
	C100.341911,253.660690 100.132988,248.862045 101.001472,244.105240 
	C101.380730,242.027969 102.021156,240.776184 104.405159,241.004852 
	C107.365257,241.288757 105.841972,243.409714 105.983780,244.769745 
	C106.119606,246.072388 105.924431,247.409531 105.860352,249.197540 
z"/>
<path fill="#FBFAF9" opacity="1.000000" stroke="none" 
	d="
M282.411133,249.598099 
	C279.735657,248.901733 280.822388,247.356720 281.619629,246.327911 
	C282.168610,245.619476 283.750305,245.499680 284.270386,246.363907 
	C285.150360,247.826172 283.813110,248.681244 282.411133,249.598099 
z"/>
<path fill="#FBFAF9" opacity="1.000000" stroke="none" 
	d="
M359.739777,254.703262 
	C359.032318,255.793900 358.309723,256.205505 357.501038,255.664749 
	C357.180054,255.450089 357.035522,254.789246 357.022675,254.325668 
	C356.941254,251.384293 356.595703,248.381332 358.368744,245.739960 
	C358.818817,245.069519 359.612671,245.065231 359.963074,245.708435 
	C361.520020,248.565994 360.518433,251.455154 359.739777,254.703262 
z"/>
</svg>